<svg xmlns="http://www.w3.org/2000/svg" width="14.137" height="17.83" viewBox="0 0 14.137 17.83">
  <g id="logo" transform="translate(-32.863 -124.83)">
    <path id="Vector" d="M14.129,14.7l-.8-10.033a1.254,1.254,0,0,0-1.245-1.153H10.515V3.446a3.446,3.446,0,1,0-6.893,0v.071H2.049A1.254,1.254,0,0,0,.8,4.669L.008,14.7A2.9,2.9,0,0,0,2.9,17.83h8.331A2.9,2.9,0,0,0,14.129,14.7ZM4.666,3.446a2.4,2.4,0,1,1,4.8,0v.071h-4.8ZM12.6,16.19a1.84,1.84,0,0,1-1.364.6H2.9a1.859,1.859,0,0,1-1.853-2l.8-10.036a.2.2,0,0,1,.2-.188H3.622V5.848a.522.522,0,1,0,1.044,0V4.562h4.8V5.848a.522.522,0,1,0,1.044,0V4.562h1.573a.205.205,0,0,1,.2.19l.8,10.033A1.84,1.84,0,0,1,12.6,16.19Z" transform="translate(32.863 124.83)" fill="#fff"/>
    <path id="Vector-2" data-name="Vector" d="M4.858.153a.522.522,0,0,0-.738,0L1.788,2.485l-.9-.9a.522.522,0,0,0-.738.738L1.419,3.592a.522.522,0,0,0,.738,0l2.7-2.7A.522.522,0,0,0,4.858.153Z" transform="translate(37.426 133.532)" fill="#fff"/>
  </g>
</svg>
