<svg xmlns="http://www.w3.org/2000/svg" width="12" height="12" viewBox="0 0 12 12">
  <path id="Vector" d="M11.695,2.8a1.244,1.244,0,0,0-.949-.442H4.3a.459.459,0,0,0,0,.918h6.447a.349.349,0,0,1,.268.125.364.364,0,0,1,.082.289L10.528,7.7a.641.641,0,0,1-.626.552H3.355a.633.633,0,0,1-.63-.59L2.147.642A.456.456,0,0,0,1.775.228L.527.006a.451.451,0,0,0-.52.375.459.459,0,0,0,.366.53l.906.16.549,6.671A1.536,1.536,0,0,0,3.355,9.176H9.9a1.549,1.549,0,0,0,1.516-1.339l.57-4.016A1.3,1.3,0,0,0,11.693,2.8Zm-9.35,8.275A.909.909,0,1,1,3.254,12,.92.92,0,0,1,2.345,11.073Zm6.752,0a.909.909,0,1,1,.908.927A.919.919,0,0,1,9.1,11.073Zm.293-5.994a.455.455,0,0,1-.45.459H7.276a.459.459,0,0,1,0-.919H8.939a.455.455,0,0,1,.45.459Z" fill="#071529"/>
</svg>
