<svg xmlns="http://www.w3.org/2000/svg" width="56.994" height="50.346" viewBox="0 0 56.994 50.346">
  <path id="Vector" d="M54.505.386C51.933-1,49.065,1.672,47.383,3.254,43.526,7.013,40.261,11.366,36.6,15.322c-4.056,4.352-7.815,8.7-11.969,12.958-2.374,2.374-4.946,4.946-6.529,7.913-3.561-3.462-6.627-7.221-10.584-10.287C4.651,23.73-.1,22.148,0,27.39c.2,6.825,6.232,14.145,10.683,18.794,1.879,1.978,4.352,4.056,7.221,4.155,3.462.2,7.023-3.957,9.1-6.232C30.666,40.151,33.634,35.7,37,31.644c4.352-5.342,8.8-10.584,13.057-16.025C52.725,12.256,61.133,3.947,54.505.386ZM4.354,26.995a.749.749,0,0,0-.4.1,4.814,4.814,0,0,1-1.088-.4Q3.315,26.4,4.354,26.995Z" fill="#f96c05"/>
</svg>
