<svg xmlns="http://www.w3.org/2000/svg" width="18" height="20" viewBox="0 0 18 20">
  <path id="Vector" d="M6.046,3.5h11.24a.732.732,0,0,1,0,1.463H.713a.732.732,0,0,1,0-1.463H3.907a.9.9,0,0,0,.878-.737l.238-1.22A1.99,1.99,0,0,1,6.932,0h4.136a1.977,1.977,0,0,1,1.9,1.494.734.734,0,0,1-.5.9.712.712,0,0,1-.874-.518.542.542,0,0,0-.52-.409H6.932a.542.542,0,0,0-.52.409L6.185,3.046A2.486,2.486,0,0,1,6.046,3.5Zm-.891,15A1.475,1.475,0,0,1,3.613,16.98c-.306-2.823-.831-9.508-.836-9.575a.73.73,0,0,0-.769-.672.726.726,0,0,0-.653.788c0,.068.531,6.776.839,9.622A2.916,2.916,0,0,0,5.125,19.96H5.14A.732.732,0,0,0,5.155,18.5ZM15.992,6.733a.73.73,0,0,0-.769.671c0,.067-.533,6.77-.837,9.571A1.493,1.493,0,0,1,12.778,18.5l-.387.007c-1.237.022-1.813.033-3.2.028h0a.732.732,0,0,0,0,1.463h.73c1.019,0,1.426-.008,2.191-.024l.693-.014a2.918,2.918,0,0,0,3-2.828c.305-2.821.835-9.546.84-9.613A.727.727,0,0,0,15.992,6.733Z" fill="#eb5757"/>
</svg>
