<svg xmlns="http://www.w3.org/2000/svg" width="16.362" height="18.484" viewBox="0 0 16.362 18.484">
  <g id="Group" transform="translate(-32 -567)">
    <path id="Vector" d="M16.323,2.738,15.029.2a.361.361,0,0,0-.322-.2H1.655a.361.361,0,0,0-.322.2L.039,2.738a.361.361,0,0,0,.322.525H.812V9.639A.361.361,0,0,0,1.173,10H15.188a.361.361,0,0,0,.361-.361V3.264H16a.361.361,0,0,0,.322-.525ZM14.486.722l.926,1.819H9.7L8.77.722ZM1.876.722H7.592L6.666,2.541H.95Zm12.95,8.556H8.542v-2a.361.361,0,1,0-.722,0v2H1.534V3.264H6.887a.361.361,0,0,0,.322-.2l.611-1.2V4.033a.361.361,0,1,0,.722,0V1.867l.611,1.2a.361.361,0,0,0,.322.2h5.352Z" transform="translate(32 575.484)" fill="#fff"/>
    <path id="Vector-2" data-name="Vector" d="M2.418,0H.361a.361.361,0,1,0,0,.722H2.418a.361.361,0,1,0,0-.722Z" transform="translate(34.674 582.784)" fill="#fff"/>
    <path id="Vector-3" data-name="Vector" d="M3.708,7.421A3.711,3.711,0,1,0,0,3.71,3.713,3.713,0,0,0,3.708,7.421Zm0-6.7A2.988,2.988,0,1,1,.722,3.71,2.989,2.989,0,0,1,3.708.722Z" transform="translate(36.473 567)" fill="#fff"/>
    <path id="Vector-4" data-name="Vector" d="M.128,1.984l.961.815a.361.361,0,0,0,.234.086h.031A.361.361,0,0,0,1.6,2.755L3.409.593A.361.361,0,1,0,2.855.129L1.279,2.013l-.684-.58a.361.361,0,0,0-.467.551Z" transform="translate(38.434 569.268)" fill="#fff"/>
    <path id="Vector-5" data-name="Vector" d="M.361.722H1.924a.361.361,0,0,0,0-.722H.361a.361.361,0,0,0,0,.722Z" transform="translate(32.724 570.349)" fill="#fff"/>
    <path id="Vector-6" data-name="Vector" d="M.193.681,1.756,1.5A.361.361,0,1,0,2.093.866L.53.042A.361.361,0,1,0,.193.681Z" transform="translate(32.724 567.877)" fill="#fff"/>
    <path id="Vector-7" data-name="Vector" d="M.042,1.353A.361.361,0,0,0,.53,1.5L2.092.681A.361.361,0,0,0,1.756.042L.193.865a.361.361,0,0,0-.151.488Z" transform="translate(32.724 571.997)" fill="#fff"/>
    <path id="Vector-8" data-name="Vector" d="M.361.722H1.924a.361.361,0,1,0,0-.722H.361a.361.361,0,0,0,0,.722Z" transform="translate(45.352 570.349)" fill="#fff"/>
    <path id="Vector-9" data-name="Vector" d="M.362,1.547A.36.36,0,0,0,.53,1.5L2.092.681A.361.361,0,0,0,1.755.042L.193.866a.361.361,0,0,0,.169.681Z" transform="translate(45.352 567.877)" fill="#fff"/>
    <path id="Vector-10" data-name="Vector" d="M.193.681,1.756,1.5A.361.361,0,0,0,2.092.865L.53.042A.361.361,0,0,0,.193.681Z" transform="translate(45.352 571.997)" fill="#fff"/>
    <path id="Vector-11" data-name="Vector" d="M.361,0A.361.361,0,0,0,0,.361v0A.361.361,0,1,0,.361,0Z" transform="translate(39.82 580.777)" fill="#fff"/>
  </g>
</svg>
