<svg xmlns="http://www.w3.org/2000/svg" width="105" height="89" viewBox="0 0 105 89">
  <g id="Group_317" data-name="Group 317" transform="translate(-220 -552)">
    <rect id="Bg" width="105" height="89" rx="25" transform="translate(220 552)" fill="#4fc0e8" opacity="0.1"/>
    <g id="Icon">
      <path id="Vector" d="M0,24A24,24,0,1,0,24,0,24,24,0,0,0,0,24Z" transform="translate(249 567)" fill="#4fc0e8"/>
      <path id="Vector-2" data-name="Vector" d="M38.395,15.546c-.013-.012-.024-.027-.039-.039a.644.644,0,0,0-.107-.107c-.032-.04-15-15-15.036-15.036a.639.639,0,0,0-.107-.107A.652.652,0,0,0,22.594,0,4.038,4.038,0,0,0,19.3,1.6c-.028-.031-.061-.057-.091-.087s-.071-.071-.107-.107S19.033,1.337,19,1.3A4.084,4.084,0,0,0,15.949,0a.664.664,0,0,0-.665.665.653.653,0,0,0,.258.513.641.641,0,0,0,.107.107c.032.04,2.928,2.94,2.958,2.967v1.73H1.627A1.533,1.533,0,0,0,0,7.521v9.358a1.765,1.765,0,0,0,.552,1.287c.034.038.07.072.106.106s.07.072.107.107S18.323,35.939,18.36,35.974c.008.009.016.016.024.024A24.007,24.007,0,0,0,38.395,15.546Z" transform="translate(258.38 578.706)" fill="#3daed9"/>
      <path id="Vector-3" data-name="Vector" d="M27.613,5.981H19.936V3.722a2.509,2.509,0,0,1,2.658-2.393.664.664,0,0,0,0-1.329,4.035,4.035,0,0,0-3.323,1.639A4.035,4.035,0,0,0,15.949,0a.664.664,0,1,0,0,1.329,2.509,2.509,0,0,1,2.658,2.393V5.981H1.627A1.533,1.533,0,0,0,0,7.52v9.358a1.682,1.682,0,0,0,1.627,1.728h16.98v2.029a2.71,2.71,0,0,1-2.658,2.623.664.664,0,0,0,0,1.329,4.03,4.03,0,0,0,3.323-1.8,4.031,4.031,0,0,0,3.323,1.8.664.664,0,1,0,0-1.329,2.71,2.71,0,0,1-2.658-2.623V18.607h7.677a1.682,1.682,0,0,0,1.627-1.728V7.521A1.533,1.533,0,0,0,27.613,5.981ZM1.329,16.879V7.52c0-.079,0-.211.3-.211h16.98v9.968H1.627A.373.373,0,0,1,1.329,16.879Zm26.582,0a.373.373,0,0,1-.3.4H19.936V7.31h7.677c.3,0,.3.132.3.211Z" transform="translate(258.38 578.706)" fill="#f4f6f9"/>
    </g>
  </g>
</svg>
