<svg xmlns="http://www.w3.org/2000/svg" width="105" height="89" viewBox="0 0 105 89">
  <rect id="Bg" width="105" height="89" rx="25" fill="#5c9dff" opacity="0.1"/>
  <g id="Icon" transform="translate(-220 -188)">
    <path id="Vector" d="M48,24A24,24,0,1,1,24,0,24,24,0,0,1,48,24Z" transform="translate(250 203)" fill="#5c9dff"/>
    <path id="Vector-2" data-name="Vector" d="M21.035,0V1.865L19.17,0H17.86V1.865L15.995,0h-1.31V1.87L12.815,0H11.5V1.865L9.64,0H8.33V1.865L6.465,0H5.155V2.685H4.08L2.685,4.08V5.155H0v1.31L1.865,8.33H0V9.64l1.87,1.87H0v1.305l1.87,1.87H0v1.31L1.865,17.86H0v1.31l1.865,1.865H0v1.31L5.155,27.5,15.347,37.692A24,24,0,0,0,37.691,15.346L22.345,0Z" transform="translate(260.25 213.25)" opacity="0.2"/>
    <path id="Vector-3" data-name="Vector" d="M20.736,0H1.4L0,1.4v19.34l1.4,1.4h19.34l1.4-1.4V1.4Z" transform="translate(262.934 215.934)" fill="#3a556a"/>
    <path id="Vector-4" data-name="Vector" d="M14.094,0H0V17.4H17.4V3.3Z" transform="translate(265.301 218.302)" fill="#ebf0f3"/>
    <path id="Vector-5" data-name="Vector" d="M9.607,0H0V11.858H11.857V2.251Z" transform="translate(268.07 221.071)" fill="#e1e6e9"/>
    <g id="Group">
      <path id="Vector-6" data-name="Vector" d="M0,0H1.309V2.684H0Z" transform="translate(265.404 213.25)" fill="#ebf0f3"/>
      <path id="Vector-7" data-name="Vector" d="M0,0H1.309V2.684H0Z" transform="translate(268.581 213.25)" fill="#ebf0f3"/>
      <path id="Vector-8" data-name="Vector" d="M0,0H1.309V2.684H0Z" transform="translate(271.756 213.25)" fill="#ebf0f3"/>
      <path id="Vector-9" data-name="Vector" d="M0,0H1.309V2.684H0Z" transform="translate(274.934 213.25)" fill="#ebf0f3"/>
      <path id="Vector-10" data-name="Vector" d="M0,0H1.308V2.684H0Z" transform="translate(281.286 213.25)" fill="#ebf0f3"/>
      <path id="Vector-11" data-name="Vector" d="M0,0H1.309V2.684H0Z" transform="translate(278.111 213.25)" fill="#ebf0f3"/>
      <path id="Vector-12" data-name="Vector" d="M0,0H1.309V2.684H0Z" transform="translate(265.404 238.065)" fill="#ebf0f3"/>
      <path id="Vector-13" data-name="Vector" d="M0,0H1.309V2.684H0Z" transform="translate(268.58 238.065)" fill="#ebf0f3"/>
      <path id="Vector-14" data-name="Vector" d="M0,0H1.309V2.684H0Z" transform="translate(271.756 238.065)" fill="#ebf0f3"/>
      <path id="Vector-15" data-name="Vector" d="M0,0H1.309V2.684H0Z" transform="translate(274.934 238.065)" fill="#ebf0f3"/>
      <path id="Vector-16" data-name="Vector" d="M0,0H1.308V2.684H0Z" transform="translate(281.285 238.065)" fill="#ebf0f3"/>
      <path id="Vector-17" data-name="Vector" d="M0,0H1.309V2.684H0Z" transform="translate(278.111 238.065)" fill="#ebf0f3"/>
      <path id="Vector-18" data-name="Vector" d="M0,0H2.684V1.309H0Z" transform="translate(285.066 218.406)" fill="#ebf0f3"/>
      <path id="Vector-19" data-name="Vector" d="M0,0H2.684V1.309H0Z" transform="translate(285.068 221.58)" fill="#ebf0f3"/>
      <path id="Vector-20" data-name="Vector" d="M0,0H2.684V1.309H0Z" transform="translate(285.066 224.759)" fill="#ebf0f3"/>
      <path id="Vector-21" data-name="Vector" d="M0,0H2.684V1.309H0Z" transform="translate(285.066 227.935)" fill="#ebf0f3"/>
      <path id="Vector-22" data-name="Vector" d="M0,0H2.684V1.309H0Z" transform="translate(285.066 234.288)" fill="#ebf0f3"/>
      <path id="Vector-23" data-name="Vector" d="M0,0H2.684V1.309H0Z" transform="translate(285.068 231.112)" fill="#ebf0f3"/>
      <path id="Vector-24" data-name="Vector" d="M0,0H2.684V1.309H0Z" transform="translate(260.252 218.405)" fill="#ebf0f3"/>
      <path id="Vector-25" data-name="Vector" d="M0,0H2.684V1.309H0Z" transform="translate(260.248 221.581)" fill="#ebf0f3"/>
      <path id="Vector-26" data-name="Vector" d="M0,0H2.684V1.309H0Z" transform="translate(260.252 224.758)" fill="#ebf0f3"/>
      <path id="Vector-27" data-name="Vector" d="M0,0H2.684V1.309H0Z" transform="translate(260.252 227.934)" fill="#ebf0f3"/>
      <path id="Vector-28" data-name="Vector" d="M0,0H2.684V1.309H0Z" transform="translate(260.252 234.287)" fill="#ebf0f3"/>
      <path id="Vector-29" data-name="Vector" d="M0,0H2.684V1.309H0Z" transform="translate(260.248 231.113)" fill="#ebf0f3"/>
    </g>
  </g>
</svg>
