<svg xmlns="http://www.w3.org/2000/svg" width="18.947" height="18" viewBox="0 0 18.947 18">
  <path id="Vector" d="M14.7.287a5.881,5.881,0,0,1,3.52,3.022,7.484,7.484,0,0,1,.318,5.646,11.859,11.859,0,0,1-2.809,4.514,22.61,22.61,0,0,1-2.667,2.342l-.05.043a.686.686,0,0,1-.953-.188.709.709,0,0,1,.168-.988,22.107,22.107,0,0,0,2.508-2.206,10.371,10.371,0,0,0,2.508-3.96,6.011,6.011,0,0,0-.284-4.547,4.529,4.529,0,0,0-2.7-2.316,4.777,4.777,0,0,0-4.372.775.692.692,0,0,1-.836,0A4.768,4.768,0,0,0,4.68,1.649,4.527,4.527,0,0,0,1.956,3.957a6.063,6.063,0,0,0-.268,4.53A10.4,10.4,0,0,0,4.2,12.439,31.3,31.3,0,0,0,9.647,16.7a.722.722,0,0,1,.273.793.7.7,0,0,1-.657.51.669.669,0,0,1-.384-.119A32.5,32.5,0,0,1,3.2,13.444,11.714,11.714,0,0,1,.385,8.931,7.527,7.527,0,0,1,.735,3.31,5.881,5.881,0,0,1,4.255.287a6.22,6.22,0,0,1,5.225.7A6.22,6.22,0,0,1,14.7.287Zm-.685,6.523a1.868,1.868,0,0,0-1.288-1.7.722.722,0,0,1-.295-.831.7.7,0,0,1,.721-.49A3.284,3.284,0,0,1,15.406,6.64a.708.708,0,0,1-.14.519.682.682,0,0,1-.462.263.7.7,0,0,1-.785-.613Z" fill="#071529"/>
</svg>
