<svg xmlns="http://www.w3.org/2000/svg" width="17.05" height="18" viewBox="0 0 17.05 18">
  <path id="Vector" d="M16.015,5.069A2.769,2.769,0,0,1,17.05,7.2l-.009,7.235a3.558,3.558,0,0,1-3.557,3.558H11.9a1.728,1.728,0,0,1-1.727-1.72V13.005a.457.457,0,0,0-.457-.457H7.353a.457.457,0,0,0-.457.465V14.26a.71.71,0,0,1-1.42,0V13.014a1.885,1.885,0,0,1,1.885-1.885H9.728a1.885,1.885,0,0,1,1.878,1.885v3.258a.3.3,0,0,0,.3.3h1.617a2.13,2.13,0,0,0,2.13-2.129V7.215a1.334,1.334,0,0,0-.5-1.025L9.7,1.842a1.862,1.862,0,0,0-2.367,0L5.578,3.152a.724.724,0,0,1-.844-1.175L6.461.722a3.274,3.274,0,0,1,4.1,0ZM3.558,16.564H7.187v.015a.71.71,0,0,1,0,1.421H3.558A3.566,3.566,0,0,1,0,14.441V7.215a2.745,2.745,0,0,1,1.065-2.13L1.72,4.6a.71.71,0,0,1,.82,1.13L1.9,6.2a1.334,1.334,0,0,0-.481,1.018v7.218a2.144,2.144,0,0,0,2.138,2.129Z" fill="#071529"/>
</svg>
