<svg xmlns="http://www.w3.org/2000/svg" width="11" height="13.75" viewBox="0 0 11 13.75">
  <path id="Vector" d="M5.414.989a2.019,2.019,0,0,0-2,2.038V6.179a2.02,2.02,0,0,0,2,2.039h.171a2.02,2.02,0,0,0,2-2.039V3.027a2.02,2.02,0,0,0-2-2.038Zm.171,8.218H5.414A3,3,0,0,1,2.451,6.179V3.027A3,3,0,0,1,5.415,0h.171A3,3,0,0,1,8.549,3.027V6.179A3,3,0,0,1,5.586,9.207Zm-2.093,1.13A4.619,4.619,0,0,1,.968,6.183a.49.49,0,0,0-.484-.5.489.489,0,0,0-.484.5,5.6,5.6,0,0,0,3.063,5.039A.482.482,0,0,0,3.711,11a.5.5,0,0,0-.219-.663ZM11,6.183a.484.484,0,1,0-.967,0A4.588,4.588,0,0,1,5.5,10.814a.49.49,0,0,0-.485.5v1.946a.484.484,0,1,0,.968,0V11.779A5.581,5.581,0,0,0,11,6.183Z" fill="#071529"/>
</svg>
