<svg xmlns="http://www.w3.org/2000/svg" width="14.4" height="18" viewBox="0 0 14.4 18">
  <path id="Vector" d="M3.652,4.819A3.548,3.548,0,1,1,7.2,8.343,3.54,3.54,0,0,1,3.652,4.819Zm-1.3,0A4.849,4.849,0,1,0,7.2,0,4.84,4.84,0,0,0,2.351,4.819ZM6.28,17.986Q6.732,18,7.2,18c3.091,0,7.2-.343,7.2-3.3,0-3.321-5.42-3.321-7.2-3.321-3.091,0-7.2.342-7.2,3.3,0,.886.414,2.083,2.391,2.748A.646.646,0,1,0,2.808,16.2C1.456,15.748,1.3,15.115,1.3,14.679c0-1.335,1.985-2.011,5.9-2.011s5.9.684,5.9,2.029-1.985,2.01-5.9,2.01c-.3,0-.594,0-.883-.012a.665.665,0,0,0-.668.627.645.645,0,0,0,.63.664Z" fill="#071529"/>
</svg>
