<svg xmlns="http://www.w3.org/2000/svg" width="22" height="18" viewBox="0 0 22 18">
  <g id="Group" transform="translate(-177 -28)">
    <path id="Vector" d="M3.347,5.762a.762.762,0,0,1-1.523,0V3.9A3.945,3.945,0,0,1,5.8,0H7.427a.755.755,0,0,1,.762.747.753.753,0,0,1-.761.746H5.8A2.436,2.436,0,0,0,3.347,3.9V5.762ZM14.6,1.493h1.593a2.44,2.44,0,0,1,2.46,2.413V5.763a.761.761,0,0,0,1.522,0V3.906A3.947,3.947,0,0,0,16.193,0H14.6a.753.753,0,0,0-.761.746.753.753,0,0,0,.76.746Zm6.638,7.548H.761a.747.747,0,1,0,0,1.494H1.823V14.1A3.947,3.947,0,0,0,5.8,18H7.427a.747.747,0,1,0,0-1.494H5.8A2.437,2.437,0,0,1,3.346,14.1V10.535H18.655v3.558a2.439,2.439,0,0,1-2.461,2.413H14.6A.747.747,0,1,0,14.6,18h1.593a3.949,3.949,0,0,0,3.983-3.907V10.535h1.062a.747.747,0,1,0,0-1.494ZM9.142,6.51h3.717a.747.747,0,1,0,0-1.493H9.142a.747.747,0,1,0,0,1.493Zm0,6.265h3.717a.746.746,0,1,1,0,1.492H9.142a.746.746,0,1,1,0-1.492Z" transform="translate(177 28)" fill="#fafafa"/>
  </g>
</svg>
