<svg xmlns="http://www.w3.org/2000/svg" width="18.001" height="18" viewBox="0 0 18.001 18">
  <path id="Vector" d="M17.78,16.746l-3.094-3.025-.072-.111a.725.725,0,0,0-1.023,0,7.3,7.3,0,0,1-9.467.306A6.911,6.911,0,0,1,2.588,4.779a7.268,7.268,0,0,1,9.069-2.671,6.968,6.968,0,0,1,3.883,8.447.7.7,0,0,0,.164.694.739.739,0,0,0,.7.209.723.723,0,0,0,.534-.486A8.4,8.4,0,0,0,12.434.847,8.778,8.778,0,0,0,1.521,3.676,8.329,8.329,0,0,0,2.745,14.652a8.809,8.809,0,0,0,11.281.464l2.74,2.677a.737.737,0,0,0,1.023,0,.706.706,0,0,0,0-1.008Z" fill="#071529"/>
</svg>
