<svg xmlns="http://www.w3.org/2000/svg" width="18" height="18" viewBox="0 0 18 18">
  <g id="Logo" transform="translate(-31 -346)">
    <path id="Vector" d="M3.164,3.691V3.164H4.219V2.109H3.164V1.582A1.582,1.582,0,0,0,0,1.582V3.691a1.582,1.582,0,0,0,3.164,0Zm-1.055,0a.527.527,0,0,1-1.055,0V3.164H2.109Zm0-1.582H1.055V1.582a.527.527,0,0,1,1.055,0Z" transform="translate(37.398 346)" fill="#fff"/>
    <path id="Vector-2" data-name="Vector" d="M15.235,5.392l-.318-2.228h.974V0H14.309a1.585,1.585,0,0,0-1.491,1.055H9.472A1.581,1.581,0,0,0,7.453.091V0h-6.4V5.273H0V6.328H1.776A4.788,4.788,0,0,0,0,10.055a2.665,2.665,0,0,0,2.637,2.672,2.66,2.66,0,0,0,2.585-2.145h7.557A2.634,2.634,0,0,0,18,10.055V9a3.737,3.737,0,0,0-2.765-3.608Zm-.926-4.337h.527V2.109h-.527a.527.527,0,0,1,0-1.055Zm-12.2,0H6.4V2.109H2.109Zm0,2.109H6.4V5.273H2.109Zm.527,8.508a1.61,1.61,0,0,1-1.492-1.091H4.128A1.61,1.61,0,0,1,2.637,11.672ZM8.508,9.527H1.092a3.709,3.709,0,0,1,3.654-3.2H8.508Zm2.109,0H9.563V5.273H7.98a.528.528,0,0,1-.527-.527V4.128a1.574,1.574,0,0,0,.527.091H10.09a.528.528,0,0,1,.527.527ZM7.98,3.164a.528.528,0,0,1-.527-.527V1.582a.527.527,0,0,1,1.055,0v.527h4.128a1.585,1.585,0,0,1-1.492,1.055Zm4.746.526V5.8a1.641,1.641,0,0,1-1.055,1.521V4.746a1.574,1.574,0,0,0-.1-.562,2.624,2.624,0,0,0,1.158-.494Zm.053,5.837H11.672V8.419A2.679,2.679,0,0,0,13.781,5.8V3.073l.06.02C14.633,8.634,14,4.233,14.3,6.3l.393.057a2.634,2.634,0,0,1,1.944,1.389A2.635,2.635,0,0,0,12.78,9.527Zm2.584,2.145a1.621,1.621,0,0,1-1.582-1.617,1.583,1.583,0,0,1,.849-1.4l.211,1.476,1.044-.149L15.674,8.5a1.585,1.585,0,0,1,1.271,1.551,1.621,1.621,0,0,1-1.582,1.617Z" transform="translate(31 351.273)" fill="#fff"/>
  </g>
</svg>
