<svg xmlns="http://www.w3.org/2000/svg" width="105" height="89" viewBox="0 0 105 89">
  <g id="Group_306" data-name="Group 306" transform="translate(-50 -552)">
    <rect id="Bg" width="105" height="89" rx="25" transform="translate(50 552)" fill="#ffd15d" opacity="0.1"/>
    <g id="Icon">
      <path id="Vector" d="M48,24A24,24,0,1,1,24,0,24,24,0,0,1,48,24Z" transform="translate(79 567)" fill="#ffd15d"/>
      <path id="Vector-2" data-name="Vector" d="M8.615,14.041,0,24,12,36A24,24,0,0,0,36,12L24,0Z" transform="translate(91 579)" fill="#f9b54c"/>
      <path id="Vector-3" data-name="Vector" d="M24,0H0V24H17.886L24,17.886Z" transform="translate(91 579)" fill="#fff"/>
      <path id="Vector-4" data-name="Vector" d="M0,0V24H5.886L12,17.886V0Z" transform="translate(103 579)" fill="#e6f3ff"/>
      <path id="Vector-5" data-name="Vector" d="M0,6.114,6.114,0H0Z" transform="translate(108.885 596.885)" fill="#c1321f"/>
      <g id="Group">
        <path id="Vector-6" data-name="Vector" d="M5.157,4.056a1.542,1.542,0,0,1-.136.6,2.153,2.153,0,0,1-.428.631,2.187,2.187,0,0,1-.746.5,2.678,2.678,0,0,1-1.057.193A3.7,3.7,0,0,1,1.957,5.9a2.341,2.341,0,0,1-.681-.27,2.29,2.29,0,0,1-.562-.483,2.87,2.87,0,0,1-.391-.61,3.174,3.174,0,0,1-.243-.72A3.92,3.92,0,0,1,0,3,3.605,3.605,0,0,1,.2,1.748,2.669,2.669,0,0,1,.785.8a2.542,2.542,0,0,1,.888-.6A2.877,2.877,0,0,1,2.758,0,2.711,2.711,0,0,1,4.009.28a2.264,2.264,0,0,1,.84.693,1.367,1.367,0,0,1,.292.779A.508.508,0,0,1,5,2.107a.451.451,0,0,1-.343.154.474.474,0,0,1-.337-.107,1.48,1.48,0,0,1-.25-.367,1.764,1.764,0,0,0-.539-.643A1.315,1.315,0,0,0,2.766.931a1.383,1.383,0,0,0-1.15.549,2.484,2.484,0,0,0-.428,1.559,2.9,2.9,0,0,0,.189,1.123,1.417,1.417,0,0,0,.537.669,1.48,1.48,0,0,0,.813.221A1.427,1.427,0,0,0,3.58,4.8a1.513,1.513,0,0,0,.527-.736,1.252,1.252,0,0,1,.185-.373.419.419,0,0,1,.355-.144.5.5,0,0,1,.359.146A.485.485,0,0,1,5.157,4.056Z" transform="translate(95.022 587.756)" fill="#d83e20"/>
        <path id="Vector-7" data-name="Vector" d="M4.6,4.147a1.7,1.7,0,0,1-.27.943,1.8,1.8,0,0,1-.791.655A2.963,2.963,0,0,1,2.3,5.982,2.778,2.778,0,0,1,.888,5.658a1.88,1.88,0,0,1-.641-.621A1.41,1.41,0,0,1,0,4.281a.512.512,0,0,1,.525-.517.446.446,0,0,1,.314.118.933.933,0,0,1,.219.351A2.339,2.339,0,0,0,1.3,4.7.967.967,0,0,0,1.657,5a1.333,1.333,0,0,0,.612.12,1.38,1.38,0,0,0,.846-.243.73.73,0,0,0,.326-.606.641.641,0,0,0-.176-.468,1.135,1.135,0,0,0-.454-.274q-.278-.095-.744-.2a5.449,5.449,0,0,1-1.044-.341,1.685,1.685,0,0,1-.667-.533A1.382,1.382,0,0,1,.11,1.618,1.441,1.441,0,0,1,.371.77,1.64,1.64,0,0,1,1.124.2,3.086,3.086,0,0,1,2.285,0a2.873,2.873,0,0,1,.921.132,1.948,1.948,0,0,1,.645.351,1.468,1.468,0,0,1,.375.46,1.061,1.061,0,0,1,.118.469.555.555,0,0,1-.148.377.472.472,0,0,1-.369.168.424.424,0,0,1-.306-.1,1.352,1.352,0,0,1-.227-.33,1.494,1.494,0,0,0-.379-.511,1.108,1.108,0,0,0-.71-.183,1.23,1.23,0,0,0-.732.2.58.58,0,0,0-.278.479.485.485,0,0,0,.095.3.8.8,0,0,0,.26.217,1.753,1.753,0,0,0,.335.142q.17.051.56.15a8.81,8.81,0,0,1,.886.253,2.7,2.7,0,0,1,.675.335,1.382,1.382,0,0,1,.434.5A1.6,1.6,0,0,1,4.6,4.147Z" transform="translate(101.031 587.756)" fill="#d83e20"/>
      </g>
      <path id="Vector-8" data-name="Vector" d="M.236.832a1.109,1.109,0,0,1,.71.183,1.5,1.5,0,0,1,.379.511,1.356,1.356,0,0,0,.227.33.424.424,0,0,0,.306.1.472.472,0,0,0,.369-.168.555.555,0,0,0,.148-.377,1.061,1.061,0,0,0-.118-.47,1.465,1.465,0,0,0-.375-.46A1.95,1.95,0,0,0,1.237.132,2.87,2.87,0,0,0,.316,0C.207,0,.1,0,0,.012V.849A1.711,1.711,0,0,1,.236.832Z" transform="translate(103 587.756)" fill="#c1321f"/>
      <path id="Vector-9" data-name="Vector" d="M.1,1.272a1.879,1.879,0,0,0,.641.621A2.54,2.54,0,0,0,1.821,2.2v-.87a1.052,1.052,0,0,1-.312-.1A.967.967,0,0,1,1.148.931,2.35,2.35,0,0,1,.91.469.931.931,0,0,0,.691.118.446.446,0,0,0,.377,0,.5.5,0,0,0,0,.152" transform="translate(101.179 591.52)" fill="#d83e20"/>
      <g id="Group-2" data-name="Group">
        <path id="Vector-10" data-name="Vector" d="M2.472,1.213a1.379,1.379,0,0,0-.434-.5A2.7,2.7,0,0,0,1.363.378,8.853,8.853,0,0,0,.477.126C.272.074.114.032,0,0V1.111l.1.025q.465.106.744.2a1.137,1.137,0,0,1,.454.274.64.64,0,0,1,.176.468.73.73,0,0,1-.325.606A1.38,1.38,0,0,1,.3,2.927,1.835,1.835,0,0,1,0,2.9v.87c.107.009.217.014.331.014a2.962,2.962,0,0,0,1.235-.237A1.8,1.8,0,0,0,2.357,2.9a1.7,1.7,0,0,0,.27-.943A1.6,1.6,0,0,0,2.472,1.213Z" transform="translate(103 589.95)" fill="#c1321f"/>
        <path id="Vector-11" data-name="Vector" d="M4.6,4.147a1.7,1.7,0,0,1-.27.943,1.8,1.8,0,0,1-.791.655A2.963,2.963,0,0,1,2.3,5.982,2.778,2.778,0,0,1,.888,5.658a1.88,1.88,0,0,1-.641-.621A1.41,1.41,0,0,1,0,4.281a.512.512,0,0,1,.525-.517.446.446,0,0,1,.314.118.933.933,0,0,1,.219.351A2.339,2.339,0,0,0,1.3,4.7.967.967,0,0,0,1.657,5a1.333,1.333,0,0,0,.612.12,1.38,1.38,0,0,0,.846-.243.73.73,0,0,0,.326-.606.641.641,0,0,0-.176-.468,1.135,1.135,0,0,0-.454-.274q-.278-.095-.744-.2a5.449,5.449,0,0,1-1.044-.341,1.686,1.686,0,0,1-.667-.533A1.382,1.382,0,0,1,.11,1.618,1.441,1.441,0,0,1,.371.77,1.641,1.641,0,0,1,1.124.2,3.086,3.086,0,0,1,2.285,0a2.873,2.873,0,0,1,.921.132,1.948,1.948,0,0,1,.645.351,1.468,1.468,0,0,1,.375.46,1.061,1.061,0,0,1,.118.469.555.555,0,0,1-.148.377.472.472,0,0,1-.369.168.424.424,0,0,1-.306-.1,1.352,1.352,0,0,1-.227-.33,1.494,1.494,0,0,0-.379-.511,1.108,1.108,0,0,0-.71-.183,1.23,1.23,0,0,0-.732.2.58.58,0,0,0-.278.479.485.485,0,0,0,.095.3.8.8,0,0,0,.26.217,1.753,1.753,0,0,0,.335.142q.17.051.56.15a8.81,8.81,0,0,1,.886.253,2.7,2.7,0,0,1,.675.335,1.382,1.382,0,0,1,.434.5A1.6,1.6,0,0,1,4.6,4.147Z" transform="translate(106.421 587.756)" fill="#c1321f"/>
      </g>
    </g>
  </g>
</svg>
